<?xml version="1.0" encoding="UTF-8"?>
<!DOCTYPE svg PUBLIC "-//W3C//DTD SVG 1.1//EN" "http://www.w3.org/Graphics/SVG/1.1/DTD/svg11.dtd">
<!-- Creator: CorelDRAW -->
<svg xmlns="http://www.w3.org/2000/svg" xml:space="preserve" width="155.683mm" height="155.208mm" version="1.1" style="shape-rendering:geometricPrecision; text-rendering:geometricPrecision; image-rendering:optimizeQuality; fill-rule:evenodd; clip-rule:evenodd"
viewBox="0 0 21101.34 21037.04"
 xmlns:xlink="http://www.w3.org/1999/xlink"
 xmlns:xodm="http://www.corel.com/coreldraw/odm/2003">
 <defs>
  <style type="text/css">
   <![CDATA[
    .fil0 {fill:#113650}
    .fil3 {fill:#927A4B}
    .fil1 {fill:#987E4B}
    .fil4 {fill:#997F4D}
    .fil5 {fill:#99804D}
    .fil2 {fill:#F6F5F5}
   ]]>
  </style>
 </defs>
 <g id="Camada_x0020_1">
  <metadata id="CorelCorpID_0Corel-Layer"/>
  <path class="fil0" d="M18594.4 11569.13c-330.83,-1.8 -550.55,46.19 -879.92,-69.84 -160.66,-56.62 -504.2,-186.69 -608,-298.41l1939.71 4.41c150.37,894.83 -490.51,2951.29 -910.5,3800.81 -430.59,871.01 -1479.89,2325.61 -2078.38,2633.61l984.19 -1218.16c782.59,-1090.64 1799.96,-3683.88 1552.89,-4852.42zm-16664.76 -1273.05c0,-1471.35 345.49,-2858.96 862.22,-4017.32 387.04,-867.58 1477.07,-2471.6 2110.21,-2794.95 -132.42,226.94 -355.77,466.84 -530.63,661.66 -469.97,523.65 -982.39,1489.55 -1275.87,2168.08 -1030.86,2383.4 -957.04,5962.5 70.31,8296.33 558.77,1269.38 768.58,1462.8 1489.08,2403.29 183.33,239.31 432.92,428.58 589.28,662.25 -793.8,-415.23 -1939.12,-2086.03 -2377.01,-2991.17 -603.85,-1248.13 -937.58,-2767.72 -937.58,-4388.18zm16598.66 -3040.13c-426.47,50.2 -359.22,-112.55 -480.17,-474.12 -236.55,-707.08 -517.92,-1229.59 -888.9,-1831.6 -242.92,-394.21 -889.55,-1182.72 -1214.68,-1515.6 -133.86,-137.05 -346.58,-305.05 -458.18,-431.26 183.94,63.64 867.92,661.32 1023.37,805.11 641.24,593.3 2013.84,2623.39 2018.56,3447.48zm1717.72 3060.13l-7826.06 4.49c-61.48,195.91 -46.94,472.62 -9.49,674.18 1143.53,39.73 1473.06,-182.93 2931.91,199.61 426.03,111.7 794.03,264.98 1148.07,461.41 304.99,169.22 808.12,562.94 924.42,743.28 41.91,804.91 -458.07,2281.59 -730.59,2898.87 -700.92,1587.89 -2157.82,2984.92 -3771.61,3574.44 -3058.66,1117.33 -5970.05,-133.2 -7672.87,-2444.91 -1026.48,-1393.54 -1664.47,-3428.57 -1756.95,-5594.34 -174.56,-4087.74 1494.12,-8122.3 5643.81,-9003.19 3071.52,-652.03 5870.36,995.64 7255.24,3495.53 680.7,1228.77 592.96,1641.59 914.32,2752.2l2625.05 8.38c39.39,-628.46 -942.14,-2526.22 -1413.22,-3188.54 -3626.79,-5099.18 -11391.44,-5644.42 -15670.23,-319.52 -2254.15,2805.28 -2716.51,7228.26 -664.5,10759.76 540.94,930.96 1403.93,1959.76 2149.61,2544.16 1986,1556.38 4381.14,2514.65 7052.9,2261.5 1396.6,-132.33 2563.05,-478.08 3622.94,-1021.11 522.96,-267.94 1002.16,-571.91 1447.32,-879.84 232.24,-160.59 423.1,-355.84 635.19,-528.96 935.18,-763.46 1915.08,-2184.8 2454.85,-3452.04 367.71,-863.27 864.9,-2870.86 709.91,-3945.34z"/>
  <path class="fil1" d="M11981.35 11435.39c0,-321.53 -57.44,-1278.15 31.96,-1516.5l8637.87 -31.03c286.95,2435.93 -818.49,5611.47 -2509.65,7364.87 -791.23,820.32 -1540.48,1533.85 -2763.94,2158.03 -1164.08,593.9 -2327.13,1014.74 -3831.35,1136.37 -3126.44,252.85 -5729.79,-839.31 -7470.35,-2328.42 -3169.12,-2711.32 -4425.73,-6784.67 -3194.64,-10805.95 1036.14,-3384.52 4040.47,-6224.44 7983.53,-6869.93 4722.53,-773.08 9374.34,1856.88 11032.58,6009.34 153.87,385.36 580.2,1489.39 545.17,1939.97l-3506.25 9.46c-146.18,-445.54 -203.76,-1103.84 -346.74,-1592.54 -1667.34,-5699.18 -9442.71,-6903.15 -12050.64,-492.57 -772.42,1898.71 -782.02,4770.62 -268.45,6826.65 552.06,2210.21 1634.68,3623.03 3059.02,4628.33 1681.56,1186.86 4198.84,1286.99 6106.47,314.56 1501.4,-765.37 2808.69,-2355.78 3343.02,-4356.57 65.89,-246.78 100.3,-518.62 153.73,-780.7 89.62,-439.8 168.14,-461.48 -153.36,-694.73 -355.32,-257.77 -758.57,-508.74 -1251.53,-669.68 -495.93,-161.92 -1059.4,-273.72 -1609.76,-302.03 -671.6,-34.52 -1311.01,74.34 -1936.69,53.05zm9068.89 -1972.58l-9514.78 15.99c-36.05,465.56 68.79,1282.85 -67.2,1674.95 -205.18,591.57 -603.1,727.42 -736.84,1021.58 73.44,126.68 150.4,204.6 278.59,265.75 534.44,-257.83 108.57,-555.73 1090.58,-592.25 -91.61,300.26 -597.68,618.83 -763.98,863.42 48.47,123.38 135.49,207.8 254.71,273.54 187.39,-92.62 750.92,-706.38 941.09,-897.89 409.75,-412.67 456.47,-284.87 1557.92,-254.33 30.97,237.37 -31.61,53.24 -86.64,308.31 101.37,80.59 125.74,126.69 270.59,190.76 171.04,-108.51 235.57,-259.24 357.71,-414.04l388.68 51.06c-109.22,388.88 -348.39,476.11 -421.57,697.83l246.12 243.4c313.45,-158.69 402.52,-479.33 591.69,-784.62 397.51,53.09 793.8,356.77 1056.91,554.1 21.69,354.28 -312.67,1676.21 -475.61,1901.2 -304.37,-570.86 21.44,-222.99 -540.28,-791.86l-1392.42 -1290.93c-293.46,-250.26 -314.28,-480.1 -929.69,-415.38 42.14,226.16 1202.06,1192.33 1435.68,1429.97 452.14,459.92 1345.28,944.98 1084.68,1766.72 -298.03,939.76 -1967.77,2530.43 -3030.9,2773.15 203.24,-451.17 481.77,-495.56 550.43,-1181.9 58.68,-586.47 -173.63,-1047.76 -486.47,-1264.08 -144.38,59.65 -209.83,135.34 -269.17,281.78 189.77,317.27 522.88,621.7 291.64,1227.09 -490.29,1283.52 -2147.33,1677.58 -3311.26,991.82 -555.76,-327.48 -1358.2,-1272.66 -626.47,-2109.72 308.98,-353.48 1442.78,-1411.75 1600.02,-1719.99 -79.52,-126.87 -127.29,-193.85 -278.28,-242.01l-1659.7 1669.9c-233.6,311.57 -432.44,741.02 -340.32,1291.6 88.96,531.79 361.85,796.21 598.45,1073.1 -919.13,-67.57 -3295.88,-2174.75 -3143.23,-3149.77 85.73,-547.67 728.45,-852.66 928.25,-1224.48 -55.27,-107.89 -126.58,-189.81 -273.75,-256.25 -496.27,254.48 -951.56,1095.35 -1028.47,1151.38 -167.62,-250.37 -425.11,-1047.42 -366.27,-1431.24 85.17,-555.83 454.67,-853.57 666.89,-1170.38l125.38 214.07c236.48,775.85 985.37,1252.28 1601.09,1835.75 170.25,161.35 509.06,501.11 700.6,611.99 161.39,-54.05 199.1,-113.42 281.87,-239.42 -74.51,-195.34 -567.71,-548.89 -731.38,-713.89 -425.22,-428.8 -1145.54,-905.01 -1416.7,-1444.04 -193.5,-384.6 -123.8,-868.74 204.9,-1015.55 9.04,1131.29 796.79,1482.4 1566.93,2238.66 141.3,138.75 540.29,524.42 675.67,607.03 110.14,-60.23 216.08,-164.45 271.22,-298.62 -90.19,-126.8 -326.67,-327.26 -476.02,-465.72 -405.35,-375.76 -1242.54,-1019.39 -1492.59,-1461.89 -118.45,-209.67 -185.92,-546.23 -149.03,-848.08 50.22,-410.76 617.62,-830.69 887.77,-1091.85 218.57,-211.32 281.55,-325.41 161.33,-739.12 -146.91,60.41 -2432.43,2373.06 -2795.72,2845.9 -135.49,176.34 -184.53,307.83 -297.25,538.76 -118.53,-164.89 -141.37,-639.1 -23.6,-813.06 253.68,-374.72 1998.24,-2022.38 2457.72,-2509 199.18,-210.93 788.59,-913.83 1021.41,-1017.02l-0.18 1824.14c-176.72,-79.58 -63.04,-66.06 -235.8,-123.78 -116.92,85.24 -184.23,126.22 -219.78,281.18 110.6,167.91 794.8,767.15 1006.43,957.6 385.3,346.74 2929.09,2763.94 3148.34,2829.35l245.87 -236.51c-133.21,-247.52 -1215.37,-1158.64 -1491.69,-1409.08 -268.9,-243.69 -483.76,-432.88 -741.44,-689.84 -439.53,-438.31 -396.46,-158.89 -402.48,-1004.06 -6.8,-954.26 -39.61,-1909.88 -41.33,-2863.64 -0.91,-506.73 31.42,-826.66 278.05,-1170.54 149.69,-208.69 529.11,-585.13 766.84,-722.28 391.62,77.34 918.07,700.85 1041.29,1118.88 179,607.22 4.16,1542.41 138.39,2006.05 12.48,4.92 30.97,-3.28 38.49,11.55 7.58,14.95 28.45,8.67 39.13,10.38l313.05 4.59c31.05,-447.87 -27.23,-1016.46 -30.43,-1484.17 -3.28,-479.8 -99.92,-835.77 -316.88,-1177.9 -183.96,-290.13 -480.48,-520.44 -784.23,-736.46 -465.72,-331.23 -528.85,-253.19 -949.75,107.27 -653.46,559.62 -925.03,862.68 -953.52,2077.41 -22.43,956.38 11.05,2062.85 50.96,3025.92 -565.49,-173.59 -440.24,-794.95 -456.79,-1459.88 -15.19,-608.29 -40.64,-1274.84 -14.67,-1879.73 38.13,-888.65 362.12,-1372.03 918.83,-1906.07 150.92,-144.78 400.21,-275.83 478.47,-464.86 -215.1,-162.96 -860.59,-374.07 -1167.13,-443.26 -662.09,-149.46 -890.72,-66.88 -1537.72,-19.91 50.46,-122.94 116.93,-173.32 266.84,-272.63 316.5,-209.72 636.38,-415.65 995.93,-571.48 528.79,-229.09 1106.24,-348.58 1317.19,-760.97 -2049.38,48.18 -4201.31,1980.08 -4196.78,3902.71 2.22,944.23 381.83,1460.6 773.67,1968.84 136.37,-55.46 184.58,-115.79 250.01,-268.53 -448.13,-692.59 -631.95,-884.21 -600.2,-1970.02 326.14,139.39 780.28,500.85 1013.29,781.03 103.34,124.28 142.17,270.32 242.44,368.6 367,-309.58 354.25,-1210.77 821.84,-1982.23 115.56,-190.67 317.12,-393.58 365.69,-553.2 -123.19,-77.77 -276.03,-101.13 -427.36,-88.02 -385.26,163.9 -829.54,1742.4 -849.61,1775.03 -242.69,-92.64 -875.7,-545.04 -1050.97,-702.62 -128.53,-260.25 433.35,-1841.89 3034.76,-1050.25 -230.7,465.95 -739.85,404.62 -1019.65,1706.54 -174.47,811.92 -645.23,1223.8 -1072.37,1651.62l-2672.42 2711.67c-126.24,-794.84 0.45,-2413.79 140.89,-3183.45 479.62,-2628.06 1900.61,-4868.7 4791.67,-5502.32 2107.4,-461.91 4104.52,500.89 5133.53,1521.68 2100.67,2083.94 1767.34,3987.3 2087.55,4755.04l4414.42 4.08c57.55,-370.37 -348.94,-1679.8 -479.52,-2063.93 -591.57,-1740.71 -1868.4,-3472.91 -3263.74,-4561.09 -3304.45,-2577.07 -7993.6,-3152.71 -12000.6,-902.11 -566.14,317.98 -1075.53,710.19 -1523.36,1072.66 -219.25,177.46 -500.4,434.49 -682.26,614.94 -1105.66,1096.89 -1983.04,2516.87 -2488.8,4089.63 -449.14,1396.72 -635.28,3070.12 -430.88,4647.95 1047.22,8084.92 10737.9,12090.94 17195.8,6844.98 512.64,-416.45 902.49,-827.33 1334.03,-1305.53 1235.05,-1368.5 2155.44,-3441.78 2417.17,-5401.52 129.21,-967.4 50.08,-1590.72 20.56,-2501.66z"/>
  <path class="fil2" d="M20246.02 10316.08c154.99,1074.47 -342.2,3082.06 -709.91,3945.34 -539.76,1267.24 -1519.67,2688.57 -2454.85,3452.04 -212.08,173.13 -402.95,368.37 -635.19,528.96 -445.16,307.92 -924.36,611.9 -1447.32,879.84 -1059.89,543.03 -2226.34,888.78 -3622.94,1021.11 -2671.75,253.15 -5066.9,-705.12 -7052.9,-2261.5 -745.68,-584.4 -1608.67,-1613.19 -2149.61,-2544.16 -2052.01,-3531.5 -1589.65,-7954.49 664.5,-10759.76 4278.79,-5324.9 12043.44,-4779.66 15670.23,319.52 471.07,662.32 1452.6,2560.08 1413.22,3188.54l-2625.05 -8.38c-321.35,-1110.61 -233.62,-1523.43 -914.32,-2752.2 -1384.89,-2499.89 -4183.73,-4147.56 -7255.24,-3495.53 -4149.69,880.89 -5818.38,4915.46 -5643.81,9003.19 92.48,2165.77 730.47,4200.8 1756.95,5594.34 1702.83,2311.72 4614.22,3562.24 7672.87,2444.91 1613.79,-589.52 3070.69,-1986.55 3771.61,-3574.44 272.52,-617.28 772.5,-2093.96 730.59,-2898.87 -116.29,-180.34 -619.42,-574.06 -924.42,-743.28 -354.05,-196.43 -722.04,-349.71 -1148.07,-461.41 -1458.85,-382.54 -1788.38,-159.88 -2931.91,-199.61 -37.45,-201.56 -51.99,-478.27 9.49,-674.18l7826.06 -4.49zm-8264.67 1119.31c625.68,21.29 1265.08,-87.57 1936.69,-53.05 550.36,28.3 1113.83,140.11 1609.76,302.03 492.96,160.94 896.21,411.91 1251.53,669.68 321.5,233.25 242.98,254.93 153.36,694.73 -53.43,262.08 -87.84,533.92 -153.73,780.7 -534.33,2000.79 -1841.62,3591.2 -3343.02,4356.57 -1907.63,972.42 -4424.91,872.3 -6106.47,-314.56 -1424.34,-1005.29 -2506.96,-2418.12 -3059.02,-4628.33 -513.56,-2056.03 -503.97,-4927.94 268.45,-6826.65 2607.93,-6410.58 10383.3,-5206.61 12050.64,492.57 142.98,488.69 200.56,1147 346.74,1592.54l3506.25 -9.46c35.02,-450.58 -391.31,-1554.61 -545.17,-1939.97 -1658.23,-4152.46 -6310.05,-6782.42 -11032.58,-6009.34 -3943.06,645.49 -6947.39,3485.41 -7983.53,6869.93 -1231.09,4021.28 25.52,8094.64 3194.64,10805.95 1740.56,1489.11 4343.91,2581.27 7470.35,2328.42 1504.22,-121.63 2667.27,-542.48 3831.35,-1136.37 1223.46,-624.18 1972.7,-1337.71 2763.94,-2158.03 1691.16,-1753.4 2796.6,-4928.94 2509.65,-7364.87l-8637.87 31.03c-89.4,238.35 -31.96,1194.97 -31.96,1516.5z"/>
  <path class="fil1" d="M13553.08 4479.38c-157.06,67.35 -522.56,-11.41 -756.24,-0.65 -834.47,38.41 -1338.45,345.81 -1976.78,612.63 119.94,249.49 963.23,581.09 1322.16,1432.8 342.55,812.89 132.6,1688.24 280.35,2478.72 109.99,68.6 103.58,58.27 382.17,42.34l-10.36 -977.03c178.91,81.92 491.84,442.28 648.41,598.96 332.64,332.82 234.15,392.93 890.08,386.44 -94.09,-340.17 -1090.07,-851.26 -1484.48,-1805.17 -165.47,-400.24 -219.43,-842.43 -435.75,-1172.85 -400.78,-612.16 -646.53,-653.28 -788.35,-880.28 55.78,-47.9 -0.03,-19.72 116.82,-74.99 648.7,-306.82 1690.17,-352.87 2389.96,37.59 247.39,138.03 715.38,612.21 477.82,952.74 -117.3,168.14 -755.55,557.24 -982.9,623.75 -178.4,-728.14 -471.37,-1138.49 -816.15,-1632.09 -179,-23.65 -323.01,2.41 -471.99,34.96 46.82,241.74 366.15,437.2 668.89,1102.42 178.83,392.89 201.28,1078.86 462.6,1319.29 95.41,-104.99 138.75,-217.01 245.44,-328.56 162.47,-169.85 972.57,-710.84 1115.99,-766.23 -44.82,1544.75 -502.25,1663.15 -635.32,1997.44l243 276.79c412.88,-289.3 807.4,-1242.8 784.37,-1933.67 -28.06,-841.64 -309.98,-1479.14 -748.1,-1988.4 -703.15,-817.37 -2010.69,-1771.53 -3652.66,-1819.12 81.72,131.73 126.34,129.31 276,230.32 111.97,75.56 186.48,141.29 321.27,214.26 229,123.99 523.74,196.68 777.53,293.65 430.9,164.61 1101.35,471.25 1356.19,743.96z"/>
  <path class="fil3" d="M1929.64 10296.08c0,1620.46 333.73,3140.05 937.58,4388.18 437.89,905.14 1583.21,2575.94 2377.01,2991.17 -156.36,-233.67 -405.94,-422.94 -589.28,-662.25 -720.49,-940.49 -930.31,-1133.91 -1489.08,-2403.29 -1027.35,-2333.84 -1101.16,-5912.93 -70.31,-8296.33 293.49,-678.53 805.9,-1644.44 1275.87,-2168.08 174.86,-194.81 398.21,-434.72 530.63,-661.66 -633.14,323.35 -1723.17,1927.36 -2110.21,2794.95 -516.72,1158.36 -862.22,2545.97 -862.22,4017.32z"/>
  <path class="fil1" d="M7019.06 10773.34c138.63,230.69 2170.04,2064.26 2571.47,2419.59 187.34,165.82 369.97,319.78 550.17,479.06 227.67,201.24 799.45,884.21 1048.16,949.03l252.39 -239.79c-72.38,-151.4 -367.32,-401.8 -503.26,-522.79l-1557.23 -1439.53c-237.33,-218.25 -2024.33,-1841.21 -2126.89,-1871.24l-234.81 225.66z"/>
  <path class="fil3" d="M18594.4 11569.13c247.06,1168.54 -770.31,3761.77 -1552.89,4852.42l-984.19 1218.16c598.49,-308 1647.8,-1762.6 2078.38,-2633.61 419.99,-849.52 1060.86,-2905.98 910.5,-3800.81l-1939.71 -4.41c103.8,111.71 447.34,241.79 608,298.41 329.36,116.04 549.09,68.04 879.92,69.84z"/>
  <path class="fil1" d="M9800.27 4121.43c69.84,-96.71 435.79,-411.16 580.39,-405.57 147.06,5.68 503.07,267.96 580.7,360.81 -355.58,394.27 -856.67,351.19 -1161.08,44.76zm-747.52 223.72l1356.99 512.78c87.45,-15.32 484.07,-262.88 611.21,-323.4 231.15,-110.11 474.53,-191.26 698.65,-286.48 -67.62,-281.6 -1225.83,-1058.83 -1379.77,-1054.97 -142.75,3.56 -1177.13,825.15 -1287.08,1152.07z"/>
  <path class="fil1" d="M7657.99 17060.07c-27.8,-1041.88 219.16,-1309.51 852.57,-2016.51 306.81,-342.44 1067.45,-1029.2 1256.8,-1302.2 -53.74,-149.92 -129.48,-222.3 -277.7,-283.99l-1542.44 1559.21c-310.17,316.57 -1029.84,1435.36 -542.69,1885.22 110.06,101.64 101.7,127.84 253.46,158.26z"/>
  <path class="fil1" d="M12414.47 12622.78c290.34,420.6 2376.94,1982.98 2565.25,2641.68l99.45 279.15c299.44,-358.9 301.77,-659.45 -34.37,-1007.12l-1567.37 -1474.2c-214.48,-191.34 -591.16,-619.77 -812.93,-724.67 -134.24,80.16 -215.58,141.82 -250.02,285.16z"/>
  <path class="fil1" d="M9244.85 15889.08c123.63,249.18 1174.98,1092.5 1521.24,1451.93 281.83,292.54 167.69,262.85 333.34,640.43 522.54,4.81 412.06,-381.79 218.27,-655.04 -164.17,-231.49 -379.58,-385.07 -585.63,-577.11 -178.3,-166.2 -1077.16,-1051.92 -1242.41,-1118.7 -116.23,55.27 -184.77,156.86 -244.81,258.49z"/>
  <path class="fil1" d="M9810.88 15307.4l1669.39 1587.67c500.59,504.78 245.36,333.16 424.07,681.24 330.3,-105.08 307.7,-472.39 98.65,-756.71l-1932.03 -1792.35c-125.44,58.17 -199.22,123.88 -260.08,280.15z"/>
  <path class="fil1" d="M11448.2 15889.08c58.2,151.39 127.39,206.88 277.26,277.45l1951.49 -1923.7c-62,-178.06 -113.45,-216.3 -252.28,-291.25 -205.45,68.15 -362.84,298.01 -508.92,443.9 -311.41,310.98 -1330.6,1285.61 -1467.56,1493.61z"/>
  <path class="fil3" d="M18528.3 7255.95c-4.72,-824.09 -1377.31,-2854.18 -2018.56,-3447.48 -155.45,-143.8 -839.43,-741.48 -1023.37,-805.11 111.6,126.22 324.32,294.22 458.18,431.26 325.12,332.89 971.76,1121.4 1214.68,1515.6 370.99,602.02 652.36,1124.53 888.9,1831.6 120.94,361.57 53.7,524.33 480.17,474.12z"/>
  <path class="fil1" d="M10848.12 15352.16c63.98,117.04 151.37,211.15 296.05,259.95l1897.8 -1960.22c-55.99,-151.97 -135.42,-224.78 -288.04,-282.3 -132.27,87.04 -1828.18,1847.34 -1905.81,1982.57z"/>
  <path class="fil4" d="M12993.88 15252.82c253.73,559.16 646.83,262.38 646.83,1774.95 974.04,-140.54 72.13,-1819.65 -394.9,-2034.22l-251.93 259.28z"/>
  <path class="fil4" d="M5822.96 9540.46l247.25 -258.88c-315.17,-541.65 -644.84,-714.77 -757.46,-1646.69l-33.3 -195.87c-4.24,-13.17 -10.1,-25.47 -14.5,-37.15l-35.61 -71.65c-141.3,365.38 -261.7,897.75 -80.09,1309.45 136.79,310.08 433.38,781.14 673.71,900.79z"/>
  <path class="fil4" d="M14793.05 9057.4c359.31,6.37 641.22,88.12 915.74,-734.69 183.4,-549.71 39.01,-869.77 -118.38,-1315.19 -70.71,83.64 -72.53,117.15 -85.82,281.63 -8.86,109.61 -11.2,199.72 -30.89,320.81 -32.03,197.13 -85.84,390.25 -155.8,549.98 -133.83,305.64 -461.6,646.71 -524.84,897.46z"/>
  <path class="fil4" d="M6270.11 15568.51c141.04,-363.7 53.31,-402.11 329.46,-736.47 162.51,-196.81 379.88,-368.9 507.53,-553.75 -61.33,-138.83 -179.58,-221.72 -300.4,-251.62 -312.98,286.56 -1263.05,1161.45 -536.59,1541.85z"/>
  <path class="fil2" d="M9800.27 4121.43c304.41,306.43 805.51,349.52 1161.08,-44.76 -77.62,-92.85 -433.64,-355.13 -580.7,-360.81 -144.59,-5.6 -510.54,308.86 -580.39,405.57z"/>
  <path class="fil4" d="M9355.52 17594.4c51.03,-44.59 19.23,-8.8 63.39,-72.95 7.26,-10.57 40.54,-67.72 49.55,-83.64 206.24,-365.59 332.71,-373.08 390.29,-564.37 -87.95,-116.88 -123.26,-174.78 -279.68,-218.51 -252.5,175.21 -765.85,674.57 -223.56,939.46z"/>
  <path class="fil4" d="M9858.73 17895.7c99.08,66.06 189.97,103.53 346.39,96.53 5.57,-7.97 261.49,-620.68 263.18,-626.61 -64.73,-111.62 -147.13,-200.13 -307.89,-239.7 -166.25,167.38 -335.33,451.74 -301.67,769.78z"/>
  <path class="fil5" d="M8080.67 12757c72.38,148.31 128.25,182.8 246.37,264.06 141.19,-46.92 301.96,-212.76 342.16,-353.54l-238.54 -251.5c-183.09,76.07 -257.08,180.15 -349.99,340.98z"/>
  <path class="fil5" d="M7438.36 12175.34l249.72 270.99c170.93,-79.59 254.93,-207.45 321.03,-315.74l-251.25 -282.86c-138.75,67.04 -243.02,156.83 -319.5,327.62z"/>
 </g>
</svg>
